<svg xmlns="http://www.w3.org/2000/svg" width="16" height="16" viewBox="0 0 16 16" fill="none">
    <path
        d="M8.66665 9.33331H9.99998V7.33331H12V5.99998H9.99998V3.99998H8.66665V5.99998H6.66665V7.33331H8.66665V9.33331ZM5.33331 12C4.96665 12 4.65276 11.8694 4.39165 11.6083C4.13054 11.3472 3.99998 11.0333 3.99998 10.6666V2.66665C3.99998 2.29998 4.13054 1.98609 4.39165 1.72498C4.65276 1.46387 4.96665 1.33331 5.33331 1.33331H13.3333C13.7 1.33331 14.0139 1.46387 14.275 1.72498C14.5361 1.98609 14.6666 2.29998 14.6666 2.66665V10.6666C14.6666 11.0333 14.5361 11.3472 14.275 11.6083C14.0139 11.8694 13.7 12 13.3333 12H5.33331ZM2.66665 14.6666C2.29998 14.6666 1.98609 14.5361 1.72498 14.275C1.46387 14.0139 1.33331 13.7 1.33331 13.3333V3.99998H2.66665V13.3333H12V14.6666H2.66665Z"
        fill="#1A73E8" />
</svg>