<svg xmlns="http://www.w3.org/2000/svg" width="16" height="16" viewBox="0 0 16 16" fill="none">
    <path
        d="M2 14V11.1667L10.8 2.38333C10.9333 2.26111 11.0806 2.16667 11.2417 2.1C11.4028 2.03333 11.5722 2 11.75 2C11.9278 2 12.1 2.03333 12.2667 2.1C12.4333 2.16667 12.5778 2.26667 12.7 2.4L13.6167 3.33333C13.75 3.45556 13.8472 3.6 13.9083 3.76667C13.9694 3.93333 14 4.1 14 4.26667C14 4.44444 13.9694 4.61389 13.9083 4.775C13.8472 4.93611 13.75 5.08333 13.6167 5.21667L4.83333 14H2ZM11.7333 5.2L12.6667 4.26667L11.7333 3.33333L10.8 4.26667L11.7333 5.2Z"
        fill="#5F6368" />
</svg>