<svg width="24" height="24" viewBox="0 0 24 24" fill="none" xmlns="http://www.w3.org/2000/svg">
    <g id="Google Logo">
        <g id="Icon">
            <path id="Vector"
                d="M14.7493 0.384061C13.9615 0.135591 13.1257 6.10352e-05 12.2561 6.10352e-05C9.71773 6.10352e-05 7.44762 1.14641 5.9342 2.94783L9.8335 6.22877L14.7493 0.384061Z"
                fill="#1967D2" />
            <path id="Vector_2"
                d="M5.93415 2.94794C4.7285 4.38229 4.00003 6.23452 4.00003 8.25617C4.00003 9.80911 4.31062 11.0684 4.81603 12.195L9.83344 6.22888L5.93415 2.94794Z"
                fill="#EA4335" />
            <path id="Vector_3"
                d="M12.2561 5.09663C14.001 5.09663 15.4128 6.51121 15.4128 8.25333C15.4128 9.0298 15.1332 9.74133 14.6673 10.2919C14.6673 10.2919 17.1633 7.32439 19.5831 4.45004C18.5836 2.52721 16.8499 1.04768 14.7521 0.384155L9.83347 6.22886C10.4123 5.5371 11.2819 5.09663 12.2561 5.09663Z"
                fill="#1A73E8" />
            <path id="Vector_4"
                d="M12.2561 11.4129C10.5111 11.4129 9.09936 9.99829 9.09936 8.25618C9.09936 7.48535 9.37607 6.77665 9.83631 6.22888L4.81607 12.1922C5.67442 14.0952 7.10031 15.6199 8.56854 17.5428L14.6674 10.2919C14.0885 10.9781 13.2217 11.4129 12.2561 11.4129Z"
                fill="#FBBC04" />
            <path id="Vector_5"
                d="M14.546 19.5249C17.3017 15.219 20.5121 13.2623 20.5121 8.25617C20.5121 6.88394 20.1761 5.59076 19.5832 4.45288L8.56857 17.5456C9.03446 18.1583 9.50598 18.8077 9.96622 19.5249C11.6406 22.1112 11.1775 23.6642 12.2561 23.6642C13.3375 23.6642 12.8716 22.1112 14.546 19.5249Z"
                fill="#34A853" />
        </g>
    </g>
</svg>