<svg width="32" height="32" viewBox="0 0 32 32" fill="none" xmlns="http://www.w3.org/2000/svg">
<path d="M31 16C31 24.2843 24.2843 31 16 31C7.71573 31 1 24.2843 1 16C1 7.71573 7.71573 1 16 1C24.2843 1 31 7.71573 31 16Z" fill="#13B5C7" stroke="white" stroke-width="2"/>
<path d="M16 15.9999C16.3667 15.9999 16.6806 15.8694 16.9417 15.6083C17.2028 15.3471 17.3333 15.0333 17.3333 14.6666C17.3333 14.2999 17.2028 13.986 16.9417 13.7249C16.6806 13.4638 16.3667 13.3333 16 13.3333C15.6333 13.3333 15.3194 13.4638 15.0583 13.7249C14.7972 13.986 14.6667 14.2999 14.6667 14.6666C14.6667 15.0333 14.7972 15.3471 15.0583 15.6083C15.3194 15.8694 15.6333 15.9999 16 15.9999ZM16 22.6666C14.2111 21.1444 12.875 19.7305 11.9917 18.4249C11.1083 17.1194 10.6667 15.911 10.6667 14.7999C10.6667 13.1333 11.2028 11.8055 12.275 10.8166C13.3472 9.8277 14.5889 9.33325 16 9.33325C17.4111 9.33325 18.6528 9.8277 19.725 10.8166C20.7972 11.8055 21.3333 13.1333 21.3333 14.7999C21.3333 15.911 20.8917 17.1194 20.0083 18.4249C19.125 19.7305 17.7889 21.1444 16 22.6666Z" fill="white"/>
</svg>
