<svg xmlns="http://www.w3.org/2000/svg" width="16" height="16" viewBox="0 0 16 16" fill="none">
    <path
        d="M4.78848 13.5961L4.08593 12.8936L5.2962 11.6525C4.1227 11.5577 3.12612 11.1038 2.30647 10.291C1.4868 9.47818 1.07697 8.49228 1.07697 7.33332C1.07697 6.1188 1.50624 5.09294 2.36478 4.25577C3.22333 3.41859 4.262 3 5.4808 3H7.16666V3.99998H5.4872C4.54789 3.99998 3.74468 4.32284 3.07758 4.96857C2.41049 5.6143 2.07695 6.40255 2.07695 7.33332C2.07695 8.20169 2.38699 8.94251 3.00708 9.55577C3.62718 10.169 4.38082 10.5278 5.268 10.632L4.08593 9.44997L4.78848 8.73717L7.21795 11.1666L4.78848 13.5961ZM8.83336 13V8.73075H14.3333V13H8.83336ZM8.83336 7.26922V3H14.3333V7.26922H8.83336ZM9.83333 6.26923H13.3333V3.99998H9.83333V6.26923Z"
        fill="#5F6368" />
</svg>