<svg xmlns="http://www.w3.org/2000/svg" width="16" height="16" viewBox="0 0 16 16" fill="none">
    <path
        d="M5.4808 12.9999C4.262 12.9999 3.22333 12.5813 2.36478 11.7441C1.50624 10.907 1.07697 9.88111 1.07697 8.66659C1.07697 7.50763 1.4868 6.52173 2.30647 5.70891C3.12612 4.8961 4.1227 4.44226 5.2962 4.34739L4.08593 3.10634L4.78848 2.40381L7.21795 4.83328L4.78848 7.26274L4.08593 6.54994L5.268 5.36788C4.38082 5.47214 3.62718 5.8309 3.00708 6.44414C2.38699 7.0574 2.07695 7.79821 2.07695 8.66659C2.07695 9.59736 2.41049 10.3856 3.07758 11.0313C3.74468 11.6771 4.54789 11.9999 5.4872 11.9999H7.16666V12.9999H5.4808ZM8.83336 7.26916V2.99994H14.3333V7.26916H8.83336ZM8.83336 12.9999V8.73069H14.3333V12.9999H8.83336ZM9.83333 11.9999H13.3333V9.73068H9.83333V11.9999Z"
        fill="#5F6368" />
</svg>