<svg xmlns="http://www.w3.org/2000/svg" width="16" height="16" viewBox="0 0 16 16" fill="none">
    <path
        d="M7.98332 10.0168C7.42776 10.0168 6.95554 9.82239 6.56665 9.4335C6.17776 9.04461 5.98332 8.57239 5.98332 8.01683C5.98332 7.46127 6.17776 6.98905 6.56665 6.60016C6.95554 6.21127 7.42776 6.01683 7.98332 6.01683C8.53887 6.01683 9.01109 6.21127 9.39998 6.60016C9.78887 6.98905 9.98332 7.46127 9.98332 8.01683C9.98332 8.57239 9.78887 9.04461 9.39998 9.4335C9.01109 9.82239 8.53887 10.0168 7.98332 10.0168ZM7.98332 14.6668L5.14998 11.8335L6.09998 10.8835L7.99998 12.7835L9.88332 10.9002L10.8166 11.8335L7.98332 14.6668ZM4.14998 10.8502L1.31665 8.01683L4.14998 5.1835L5.09998 6.1335L3.19998 8.0335L5.08332 9.91683L4.14998 10.8502ZM6.08332 5.10016L5.14998 4.16683L7.98332 1.3335L10.8166 4.16683L9.86665 5.11683L7.96665 3.21683L6.08332 5.10016ZM11.8166 10.8502L10.8666 9.90016L12.7666 8.00016L10.8833 6.11683L11.8166 5.1835L14.65 8.01683L11.8166 10.8502Z"
        fill="#1A73E8" />
</svg>