<svg xmlns="http://www.w3.org/2000/svg" width="24" height="24" viewBox="0 0 24 24" fill="none">
    <path
        d="M19.8 20.9834L13.3167 14.5001C12.8167 14.9223 12.2363 15.2528 11.5757 15.4917C10.915 15.7306 10.212 15.8501 9.46667 15.8501C7.65933 15.8501 6.12971 15.2237 4.87783 13.9709C3.62594 12.7181 3 11.2001 3 9.41675C3 7.63341 3.62639 6.11536 4.87918 4.86257C6.13194 3.60979 7.65277 2.9834 9.44167 2.9834C11.2306 2.9834 12.7486 3.60979 13.9958 4.86257C15.2431 6.11536 15.8667 7.63425 15.8667 9.41925C15.8667 10.1398 15.75 10.8306 15.5167 11.4917C15.2833 12.1528 14.9445 12.7612 14.5 13.3167L21 19.7834L19.8 20.9834ZM9.45 14.1834C10.7695 14.1834 11.891 13.7181 12.8146 12.7876C13.7382 11.857 14.2 10.7334 14.2 9.41675C14.2 8.10006 13.7382 6.97645 12.8146 6.0459C11.891 5.11535 10.7695 4.65007 9.45 4.65007C8.1213 4.65007 6.9919 5.11535 6.0618 6.0459C5.1317 6.97645 4.66665 8.10006 4.66665 9.41675C4.66665 10.7334 5.1317 11.857 6.0618 12.7876C6.9919 13.7181 8.1213 14.1834 9.45 14.1834Z"
        fill="#80868B" />
</svg>